<svg id="明度アイコン_1_" data-name="明度アイコン (1)" xmlns="http://www.w3.org/2000/svg" width="20" height="20" viewBox="0 0 20 20">
  <path id="パス_20" data-name="パス 20" d="M123.069,118.149a4.92,4.92,0,1,0,4.92,4.921A4.921,4.921,0,0,0,123.069,118.149Zm2.083,7a2.947,2.947,0,1,1,.862-2.083A2.934,2.934,0,0,1,125.152,125.153Z" transform="translate(-113.069 -113.07)" fill="#333"/>
  <path id="パス_21" data-name="パス 21" d="M223.326,2.935a1.467,1.467,0,1,0-1.467-1.467A1.467,1.467,0,0,0,223.326,2.935Z" transform="translate(-213.327)" fill="#333"/>
  <path id="パス_22" data-name="パス 22" d="M223.259,443.716a1.468,1.468,0,1,0,1.53,1.4A1.467,1.467,0,0,0,223.259,443.716Z" transform="translate(-213.323 -426.65)" fill="#333"/>
  <path id="パス_23" data-name="パス 23" d="M67.482,67.484a1.467,1.467,0,1,0-2.075,0A1.467,1.467,0,0,0,67.482,67.484Z" transform="translate(-62.184 -62.186)" fill="#333"/>
  <path id="パス_24" data-name="パス 24" d="M379.123,379.212a1.467,1.467,0,1,0,2.073-.09A1.467,1.467,0,0,0,379.123,379.212Z" transform="translate(-364.466 -364.466)" fill="#333"/>
  <path id="パス_25" data-name="パス 25" d="M1.468,221.869a1.467,1.467,0,1,0,1.467,1.467A1.467,1.467,0,0,0,1.468,221.869Z" transform="translate(0 -213.336)" fill="#333"/>
  <path id="パス_26" data-name="パス 26" d="M445.118,221.858a1.468,1.468,0,1,0,1.53,1.4A1.468,1.468,0,0,0,445.118,221.858Z" transform="translate(-426.649 -213.324)" fill="#333"/>
  <path id="パス_27" data-name="パス 27" d="M65.411,379.174a1.467,1.467,0,1,0,2.075,0A1.466,1.466,0,0,0,65.411,379.174Z" transform="translate(-62.187 -364.473)" fill="#333"/>
  <path id="パス_28" data-name="パス 28" d="M381.286,67.445a1.468,1.468,0,1,0-2.074.09A1.468,1.468,0,0,0,381.286,67.445Z" transform="translate(-364.466 -62.192)" fill="#333"/>
</svg>
