<svg xmlns="http://www.w3.org/2000/svg" xmlns:xlink="http://www.w3.org/1999/xlink" width="49.449" height="43.401" viewBox="0 0 49.449 43.401">
  <defs>
    <linearGradient id="linear-gradient" x1="0.5" x2="0.5" y2="0.708" gradientUnits="objectBoundingBox">
      <stop offset="0" stop-color="#777"/>
      <stop offset="1" stop-color="#444"/>
    </linearGradient>
    <filter id="パス_5" x="7.5" y="0" width="33.45" height="34.228" filterUnits="userSpaceOnUse">
      <feOffset dx="1" dy="1" input="SourceAlpha"/>
      <feGaussianBlur stdDeviation="1.5" result="blur"/>
      <feFlood flood-opacity="0.102"/>
      <feComposite operator="in" in2="blur"/>
      <feComposite in="SourceGraphic"/>
    </filter>
    <linearGradient id="linear-gradient-2" x1="0.5" x2="0.5" y2="1" gradientUnits="objectBoundingBox">
      <stop offset="0" stop-color="#555"/>
      <stop offset="1" stop-color="#111"/>
    </linearGradient>
    <filter id="パス_6" x="0" y="22.683" width="45.95" height="20.718" filterUnits="userSpaceOnUse">
      <feOffset dx="1" dy="1" input="SourceAlpha"/>
      <feGaussianBlur stdDeviation="1.5" result="blur-2"/>
      <feFlood flood-opacity="0.102"/>
      <feComposite operator="in" in2="blur-2"/>
      <feComposite in="SourceGraphic"/>
    </filter>
    <linearGradient id="linear-gradient-3" x1="0.5" x2="0.5" y2="1" gradientUnits="objectBoundingBox">
      <stop offset="0" stop-color="#333"/>
      <stop offset="1" stop-color="#111"/>
    </linearGradient>
    <filter id="パス_7" x="15.799" y="27.918" width="33.65" height="15.482" filterUnits="userSpaceOnUse">
      <feOffset dx="1" dy="1" input="SourceAlpha"/>
      <feGaussianBlur stdDeviation="1.5" result="blur-3"/>
      <feFlood flood-opacity="0.102"/>
      <feComposite operator="in" in2="blur-3"/>
      <feComposite in="SourceGraphic"/>
    </filter>
  </defs>
  <g id="グループ_21" data-name="グループ 21" transform="translate(3.5 3.5)">
    <g transform="matrix(1, 0, 0, 1, -3.5, -3.5)" filter="url(#パス_5)">
      <path id="パス_5-2" data-name="パス 5" d="M-135.209-4.836l6.016,13.85s-4.1-.387-10.088,2.461-14.362,8.916-14.362,8.916Z" transform="translate(164.64 8.34)" fill="url(#linear-gradient)"/>
    </g>
    <g transform="matrix(1, 0, 0, 1, -3.5, -3.5)" filter="url(#パス_6)">
      <path id="パス_6-2" data-name="パス 6" d="M41.364-43.211,42.4-41.278l.648,1.605a45.744,45.744,0,0,0-5.694-.291,39.835,39.835,0,0,0-9.612,1.142,41.656,41.656,0,0,0-13.351,6.746H6.1a17.54,17.54,0,0,1,2.558-2.681,32.556,32.556,0,0,1,11.839-7,46.2,46.2,0,0,1,10.732-1.99A53.44,53.44,0,0,1,41.364-43.211Z" transform="translate(-2.6 69.98)" fill="url(#linear-gradient-2)"/>
    </g>
    <g transform="matrix(1, 0, 0, 1, -3.5, -3.5)" filter="url(#パス_7)">
      <path id="パス_7-2" data-name="パス 7" d="M21.85-67.646l2.8,6.482H0a36.816,36.816,0,0,1,9.878-4.82A50.275,50.275,0,0,1,21.85-67.646Z" transform="translate(19.3 99.06)" fill="url(#linear-gradient-3)"/>
    </g>
  </g>
</svg>
