<svg xmlns="http://www.w3.org/2000/svg" width="15.418" height="12.531" viewBox="0 0 15.418 12.531">
  <path id="パス_15" data-name="パス 15" d="M4.849,12.531a8.939,8.939,0,0,0,9-9c0-.137,0-.273-.009-.409a6.435,6.435,0,0,0,1.578-1.638,6.316,6.316,0,0,1-1.817.5A3.174,3.174,0,0,0,14.993.232,6.339,6.339,0,0,1,12.984,1,3.166,3.166,0,0,0,7.593,3.884,8.981,8.981,0,0,1,1.073.579,3.166,3.166,0,0,0,2.052,4.8a3.141,3.141,0,0,1-1.433-.4c0,.013,0,.026,0,.04a3.165,3.165,0,0,0,2.538,3.1A3.159,3.159,0,0,1,1.728,7.6,3.167,3.167,0,0,0,4.683,9.8,6.348,6.348,0,0,1,.755,11.154,6.433,6.433,0,0,1,0,11.11a8.955,8.955,0,0,0,4.849,1.421" fill="#333"/>
</svg>
