<svg xmlns="http://www.w3.org/2000/svg" width="16.167" height="15.858" viewBox="0 0 16.167 15.858">
  <g id="logo-only" transform="translate(-2.999 -3)">
    <path id="パス_18" data-name="パス 18" d="M3.177,18.858H6.534a.543.543,0,0,0,.434-.237L16.211,3.434A.285.285,0,0,0,15.955,3h-3.18a.423.423,0,0,0-.375.217L3.019,18.582A.19.19,0,0,0,3.177,18.858Z" transform="translate(0 0)" fill="#383838"/>
    <path id="パス_19" data-name="パス 19" d="M46.674,51.6l4.365-7.011a.321.321,0,0,0-.276-.494H47.6a.348.348,0,0,0-.3.158l-4.483,7.169a.271.271,0,0,0,.237.415h3.219A.434.434,0,0,0,46.674,51.6Z" transform="translate(-31.924 -32.983)" fill="#383838"/>
  </g>
</svg>
