<svg xmlns="http://www.w3.org/2000/svg" width="15.955" height="15.557" viewBox="0 0 15.955 15.557">
  <path id="github-brands" d="M5.337,20.526c0,.064-.074.116-.167.116s-.18-.042-.18-.116.074-.116.167-.116S5.337,20.452,5.337,20.526Zm-1-.145c-.023.064.042.138.138.158a.151.151,0,0,0,.2-.064c.019-.064-.042-.138-.138-.167A.165.165,0,0,0,4.336,20.381Zm1.422-.055c-.093.023-.158.084-.148.158s.093.106.19.084.158-.084.148-.148S5.851,20.317,5.758,20.327ZM7.875,8A7.714,7.714,0,0,0,0,15.849a8.065,8.065,0,0,0,5.452,7.695c.412.074.557-.18.557-.389S6,21.855,6,21.179c0,0-2.252.483-2.725-.959,0,0-.367-.936-.894-1.177,0,0-.737-.505.051-.5a1.7,1.7,0,0,1,1.242.83,1.7,1.7,0,0,0,2.345.672,1.788,1.788,0,0,1,.515-1.084c-1.8-.2-3.612-.46-3.612-3.555a2.438,2.438,0,0,1,.759-1.895,3.039,3.039,0,0,1,.084-2.184c.672-.209,2.22.869,2.22.869a7.6,7.6,0,0,1,4.04,0s1.547-1.081,2.22-.869a3.038,3.038,0,0,1,.084,2.184,2.5,2.5,0,0,1,.83,1.895c0,3.1-1.895,3.352-3.693,3.555a1.9,1.9,0,0,1,.547,1.493c0,1.084-.01,2.425-.01,2.689,0,.209.148.463.557.389a7.991,7.991,0,0,0,5.4-7.688A7.887,7.887,0,0,0,7.875,8ZM3.127,19.095c-.042.032-.032.106.023.167s.125.074.167.032.032-.106-.023-.167S3.169,19.053,3.127,19.095Zm-.347-.261c-.023.042.01.093.074.125a.1.1,0,0,0,.138-.023c.023-.042-.01-.093-.074-.125S2.8,18.8,2.779,18.834Zm1.042,1.145c-.051.042-.032.138.042.2s.167.084.209.032.023-.138-.042-.2S3.863,19.928,3.822,19.979Zm-.367-.473c-.051.032-.051.116,0,.19s.138.106.18.074a.147.147,0,0,0,0-.2C3.59,19.5,3.506,19.465,3.455,19.506Z" transform="translate(0 -8)"/>
</svg>
