<svg xmlns="http://www.w3.org/2000/svg" width="12.243" height="7.218" viewBox="0 0 12.243 7.218">
  <path id="長方形_156" data-name="長方形 156" d="M.5,0h11a.5.5,0,0,1,0,1H.5a.5.5,0,0,1,0-1Z" transform="translate(0 2.975)" fill="#333"/>
  <path id="長方形_157" data-name="長方形 157" d="M.5,0h4a.5.5,0,0,1,0,1H.5a.5.5,0,0,1,0-1Z" transform="translate(8.707) rotate(45)" fill="#333"/>
  <path id="長方形_158" data-name="長方形 158" d="M.5,0h4a.5.5,0,0,1,0,1H.5a.5.5,0,0,1,0-1Z" transform="translate(8 6.51) rotate(-45)" fill="#333"/>
</svg>

