<svg xmlns="http://www.w3.org/2000/svg" xmlns:xlink="http://www.w3.org/1999/xlink" width="50" height="49.999" viewBox="0 0 50 49.999">
  <defs>
    <radialGradient id="radial-gradient" cx="0.5" cy="0.5" r="0.5" gradientUnits="objectBoundingBox">
      <stop offset="0"/>
      <stop offset="0.683" stop-color="#111"/>
      <stop offset="1" stop-color="#444"/>
    </radialGradient>
  </defs>
  <g id="グループ_107" data-name="グループ 107" transform="translate(-57 -21.001)">
    <path id="中マド_1" data-name="中マド 1" d="M-5461-6666h-42a4,4,0,0,1-4-4v-42a4,4,0,0,1,4-4h42a4,4,0,0,1,4,4v42A4,4,0,0,1-5461-6666Zm-19-42.3a27.363,27.363,0,0,0-8.23,1.191,19.29,19.29,0,0,0-6.4,3.357,15.031,15.031,0,0,0-4.142,5.2,15.4,15.4,0,0,0-1.474,6.711,15.262,15.262,0,0,0,1.489,6.71,15.05,15.05,0,0,0,4.187,5.2,19.547,19.547,0,0,0,6.464,3.357,27.941,27.941,0,0,0,8.32,1.191,37.5,37.5,0,0,0,13.023-2.376v-13.42h-8.1v8.36a25.057,25.057,0,0,1-4.928.527,16.261,16.261,0,0,1-4.858-.7,11.549,11.549,0,0,1-3.782-1.962,8.837,8.837,0,0,1-2.454-3.018,8.7,8.7,0,0,1-.874-3.868,8.375,8.375,0,0,1,.9-3.854,8.8,8.8,0,0,1,2.538-2.988,14.572,14.572,0,0,1,8.92-2.618,30.272,30.272,0,0,1,11.4,2.333v-7.04A27.57,27.57,0,0,0-5480-6708.3Z" transform="translate(5564 6737)" fill="url(#radial-gradient)"/>
  </g>
</svg>
